# xmcd CD database file
#
# Track frame offsets:
#	150
#	14772
#	28910
#	43112
#	59117
#	79897
#	97650
#	119735
#	139647
#	158702
#	174220
#	192862
#	208947
#	225630
#
# Disc length: 3329 seconds
#
# Revision: 0
# Processed by: cddbd v1.5.1PL2 Copyright (c) Steve Scherf et al.
# Submitted via: CDex 1.51
#
DISCID=c30cff0e
DTITLE=Various Artist - Together [もしもし]
DYEAR=1993
DGENRE=フォーク
TTITLE0=松山千春/季節の中で
TTITLE1=N.S.P./夕暮れ時はさびしそう
TTITLE2=小坂恭子/想い出まくら
TTITLE3=Char/気絶するほど悩ましい
TTITLE4=田山雅充/春うらら
TTITLE5=伊丹哲也＆Side By Side/街が泣いてた
TTITLE6=クリスタルキング/大都会
TTITLE7=世良公則＆ツイスト/あんたのバラード
TTITLE8=永井龍雲/想い
TTITLE9=とんぼちゃん/ひと足遅れの春
TTITLE10=松原みき/ニートな午後３時
TTITLE11=斉藤哲夫/いまのキミはピカピカに光って
TTITLE12=山崎ハコ/気分を変えて
TTITLE13=円広志/夢想花
EXTD=YEAR: 1993
EXTT0=
EXTT1=
EXTT2=
EXTT3=
EXTT4=
EXTT5=
EXTT6=
EXTT7=
EXTT8=
EXTT9=
EXTT10=
EXTT11=
EXTT12=
EXTT13=
PLAYORDER=
